<?xml version="1.0" encoding="UTF-8"?>
<svg width="196px" height="46px" viewBox="0 0 196 46" version="1.1" xmlns="http://www.w3.org/2000/svg" xmlns:xlink="http://www.w3.org/1999/xlink">
    <!-- Generator: Sketch 42 (36781) - http://www.bohemiancoding.com/sketch -->
    <title>SHAPER Logo</title>
    <desc>Created with Sketch.</desc>
    <defs></defs>
    <g id="Featured-cuttingboard" stroke="none" stroke-width="1" fill="none" fill-rule="evenodd">
        <g id="Header" transform="translate(0.000000, -2.000000)" fill="#FFFFFF">
            <g id="SHAPER-Logo" transform="translate(0.000000, 2.000000)">
                <path d="M99.6650882,14.2877353 C99.0210882,14.2877353 98.5015588,14.8086176 98.5015588,15.4472059 L98.5015588,22.0563235 L88.3342059,22.0563235 L88.3342059,15.4620882 C88.3342059,14.8235 87.8133235,14.3053235 87.1760882,14.3053235 C86.5320882,14.3053235 86.0125588,14.8235 86.0125588,15.4620882 L86.0125588,30.9735588 C86.0125588,31.6162059 86.5320882,32.1343824 87.1760882,32.1343824 C87.8133235,32.1343824 88.3342059,31.6162059 88.3342059,30.9735588 L88.3342059,24.3793235 L98.5015588,24.3793235 L98.5015588,30.9735588 C98.5015588,31.6162059 99.0210882,32.1343824 99.6650882,32.1343824 C100.302324,32.1343824 100.823206,31.6162059 100.823206,30.9735588 L100.823206,15.4472059 C100.823206,14.8086176 100.302324,14.2877353 99.6650882,14.2877353" id="Fill-1"></path>
                <path d="M171.007029,16.7676765 C171.652382,16.7676765 172.171912,16.2481471 172.171912,15.6109118 C172.171912,14.9723235 171.652382,14.4487353 171.007029,14.4487353 L161.053441,14.4487353 C160.410794,14.4487353 159.891265,14.9723235 159.891265,15.6109118 L159.891265,31.2103235 C159.891265,31.8502647 160.410794,32.3684412 161.053441,32.3684412 L171.007029,32.3684412 C171.652382,32.3684412 172.171912,31.8502647 172.171912,31.2103235 C172.171912,30.5663235 171.652382,30.0495 171.007029,30.0495 L162.211559,30.0495 L162.211559,24.2075 L169.467382,24.2075 C170.108676,24.2075 170.628206,23.6852647 170.628206,23.0466765 C170.628206,22.4080882 170.108676,21.8831471 169.467382,21.8831471 L162.241324,21.8831471 L162.241324,16.7676765 L171.007029,16.7676765 Z" id="Fill-3"></path>
                <path d="M184.633447,23.7715824 L184.633447,16.8688765 L189.731329,16.8688765 C191.634918,16.8688765 193.186741,18.4207 193.186741,20.3215824 C193.186741,22.2265235 191.634918,23.7715824 189.731329,23.7715824 L184.633447,23.7715824 Z M191.772918,25.7238765 C193.952506,24.8958765 195.502976,22.7893471 195.502976,20.3215824 C195.502976,17.1435235 192.916153,14.5472294 189.731329,14.5472294 L183.468565,14.5472294 C182.829976,14.5472294 182.314506,15.0681118 182.314506,15.7121118 L182.314506,31.2059941 C182.314506,31.8499941 182.829976,32.3681706 183.468565,32.3681706 C184.117976,32.3681706 184.633447,31.8499941 184.633447,31.2059941 L184.633447,26.0959353 L189.150918,26.0959353 L193.415388,31.9027588 C193.639976,32.2044647 193.991741,32.3681706 194.344859,32.3681706 C194.588388,32.3681706 194.829212,32.2951118 195.040271,32.1381706 C195.551682,31.7539353 195.657212,31.0247 195.274329,30.5119353 L191.772918,25.7238765 Z" id="Fill-5"></path>
                <path d="M71.2730765,21.9852941 C70.7440765,21.9162941 69.6887824,21.85 69.0975471,21.8364706 C66.1183706,21.6551765 65.7882529,20.1033529 65.7882529,19.1414118 C65.7882529,17.1065882 67.9259,16.5816471 69.0677824,16.5816471 L69.1449,16.5816471 C69.1543706,16.5816471 69.8809,16.5518824 70.5289588,16.5762353 C72.0943118,16.7237059 73.5676647,17.3338824 74.2941941,18.0820588 C74.5201353,18.3120588 74.8191353,18.4270588 75.1154294,18.4270588 C75.4076647,18.4270588 75.6971941,18.3215294 75.9204294,18.1023529 C76.3750176,17.6585882 76.3844882,16.9307059 75.9407235,16.4761176 C74.6405471,15.1475294 72.4325471,14.3628235 70.8577235,14.2843529 C70.1771941,14.2031765 69.3343118,14.2085882 69.1624882,14.2248235 C66.3889588,14.2356471 63.4693118,15.9714706 63.4693118,19.1562941 C63.4693118,22.1652353 65.3241941,23.8374706 68.9771353,24.1297059 C69.0069,24.1337647 69.0380176,24.1337647 69.0677824,24.1337647 L69.0380176,24.1337647 C69.5561941,24.1486471 70.5397824,24.2081765 70.9849,24.265 C73.1942529,24.5423529 74.4105471,25.4812941 74.4105471,26.9032353 C74.4105471,29.1044706 72.2877824,29.9027059 70.8577235,29.9027059 L70.7440765,29.9094706 C70.0134882,29.9757647 69.1543706,29.923 69.1449,29.923 L69.1002529,29.923 C67.0045471,29.8594118 66.0520765,28.5646471 65.8099,28.1668824 C65.4784294,27.6257059 64.7735471,27.4579412 64.2323706,27.7853529 C63.6884882,28.1168235 63.5180176,28.8271176 63.8494882,29.3682941 C64.8980176,31.0811176 66.7772529,32.2162353 69.3992529,32.2162353 L70.1420176,32.2 C74.2590176,32.3745294 76.7064882,30.3207647 76.7064882,26.9032353 C76.7064882,25.9101765 76.3154882,22.6211765 71.2730765,21.9852941" id="Fill-8"></path>
                <path d="M112.574853,29.7329118 L119.643971,17.4238529 L126.658971,29.7518529 L112.574853,29.7329118 Z M120.892735,14.7504412 C120.206794,13.5503824 119.089265,13.5503824 118.401971,14.7504412 L109.718794,29.8952647 C109.0315,31.0912647 109.747206,32.0680882 110.642853,32.0680882 L114.237618,32.0680882 L124.952912,32.0680882 C126.334265,32.0680882 127.722382,32.0667353 128.649147,32.0667353 C129.573206,32.0667353 130.2605,31.0912647 129.579971,29.8952647 L120.892735,14.7504412 Z" id="Fill-10"></path>
                <path d="M145.320224,23.9723588 L140.099224,23.9723588 L140.099224,16.8937706 L145.320224,16.8937706 C147.275224,16.8937706 148.859518,18.4780647 148.859518,20.4290059 C148.859518,22.3813 147.275224,23.9723588 145.320224,23.9723588 M145.320224,14.5694176 L138.935694,14.5694176 C138.299812,14.5694176 137.777576,15.0889471 137.777576,15.7288882 L137.777576,25.1304765 L137.777576,31.0861235 C137.777576,31.7287706 138.299812,32.2455941 138.935694,32.2455941 C139.578341,32.2455941 140.099224,31.7287706 140.099224,31.0861235 L140.099224,26.2913 L145.320224,26.2913 C148.551047,26.2913 151.178459,23.6611824 151.178459,20.4290059 C151.178459,17.1968294 148.551047,14.5694176 145.320224,14.5694176" id="Fill-12"></path>
                <polygon id="Fill-14" points="15.9076118 27.9307941 29.9497882 27.9443235 22.9550824 15.6582647"></polygon>
                <path d="M31.9302235,30.2548765 C31.0075176,30.2548765 29.6248118,30.2575824 28.2461647,30.2575824 L17.5674,30.2575824 L13.9821059,30.2575824 C13.0891647,30.2575824 12.3788706,29.2848176 13.0580471,28.0915235 L21.7182235,12.9954059 C22.3987529,11.7980529 23.5135765,11.7980529 24.1995176,12.9954059 L32.8542824,28.0915235 C33.5429294,29.2848176 32.8502235,30.2548765 31.9302235,30.2548765 M22.9602235,0.000405882353 C10.2994,0.000405882353 -0.000541176471,10.3003471 -0.000541176471,22.9544059 C-0.000541176471,35.6179353 10.2994,45.9205824 22.9602235,45.9205824 C35.6237529,45.9205824 45.9223412,35.6179353 45.9223412,22.9544059 C45.9223412,10.3003471 35.6237529,0.000405882353 22.9602235,0.000405882353" id="Fill-16"></path>
            </g>
        </g>
    </g>
</svg>