<?xml version="1.0" encoding="UTF-8"?>
<svg width="16px" height="18px" viewBox="0 0 16 18" version="1.1" xmlns="http://www.w3.org/2000/svg" xmlns:xlink="http://www.w3.org/1999/xlink">
    <!-- Generator: Sketch 42 (36781) - http://www.bohemiancoding.com/sketch -->
    <title>Group 5</title>
    <desc>Created with Sketch.</desc>
    <defs></defs>
    <g id="Featured-cuttingboard" stroke="none" stroke-width="1" fill="none" fill-rule="evenodd">
        <g id="Group-6-Copy-5" transform="translate(-10.000000, -6.000000)" fill="#30D2A9">
            <g id="Page-1" transform="translate(10.000000, 6.000000)">
                <g id="Group-5">
                    <path d="M14.748373,11.3429189 L14.7474,11.5764324 C14.7517784,12.4934595 14.694373,13.4294595 14.2468054,14.0784324 C14.0964811,14.3085405 13.7958324,14.3255676 13.3866973,14.3255676 L13.3429135,14.3255676 C13.5739946,13.8561081 13.6635081,13.3097838 13.7189676,12.8140541 C13.8148054,11.9116216 13.8050757,11.0286486 13.6888054,10.1894595 C13.6386973,9.82167568 13.5618324,9.41983784 13.3866973,9.06324324 C13.7184811,9.09972973 14.0590216,9.19118919 14.3188054,9.41254054 C14.7624811,9.78178378 14.7537243,10.7216757 14.748373,11.3429189 M12.5105351,13.4352973 C12.3354,14.0691892 11.9938865,14.3304324 11.2709676,14.3970811 C11.0466973,14.3970811 10.7708595,14.3970811 10.5110757,14.5566486 C10.2357243,14.6325405 10.014373,14.8417297 9.81637297,15.0270811 C9.73950811,15.1000541 9.66361622,15.1725405 9.59307568,15.2275135 C9.49723784,15.2970811 9.39994054,15.371027 9.29972432,15.4459459 C9.00053514,15.6731351 8.68967027,15.9076216 8.41237297,16.0438378 C8.24356216,16.0866486 8.05334595,16.1284865 7.86167027,16.1722703 L7.49194054,16.2559459 C6.71696757,16.3955676 5.91377838,16.469027 5.15777838,16.5361622 C4.90383243,16.5361622 4.64112973,16.5361622 4.37745405,16.4656216 C4.22858919,16.4466486 4.11912973,16.379027 4.05004865,16.2642162 C3.9546973,16.1065946 3.94594054,15.8716216 4.02280541,15.6663243 C4.08507568,15.5247568 4.0734,15.371027 3.99167027,15.2455135 C3.86712973,15.0528649 3.61658919,14.9691892 3.42442703,14.9691892 L3.39912973,14.9691892 L3.37431892,14.9740541 C3.35145405,14.9798919 3.32956216,14.9818378 3.30767027,14.9818378 C3.15053514,14.9818378 2.98902162,14.8504865 2.87518378,14.633027 C2.73215676,14.3567027 2.7126973,14.022 2.81631892,13.8736216 C2.93599459,13.733027 2.95545405,13.5287027 2.86837297,13.3404324 C2.79150811,13.175027 2.65188649,13.067027 2.49572432,13.0465946 C2.12891351,12.9220541 1.89150811,12.6919459 1.78983243,12.3679459 C1.71491351,12.0945405 1.73485946,11.7817297 1.86085946,11.6314054 C1.98102162,11.4319459 2.00875135,11.1989189 1.93529189,11.0130811 C1.87448108,10.8603243 1.74896757,10.7489189 1.5606973,10.6958919 C1.2114,10.6321622 1.10680541,10.349027 1.08004865,10.1189189 C1.02312973,9.69713514 1.34664324,9.37605405 1.65118378,9.22378378 C2.11772432,8.96254054 2.68885946,8.86913514 3.24199459,8.77864865 C3.53826486,8.73 3.84426486,8.68086486 4.13421081,8.60594595 C5.12518378,8.34859459 5.83691351,7.57362162 5.90550811,6.67751351 C5.95367027,6.01881081 5.74545405,5.41313514 5.54502162,4.82983784 C5.37426486,4.33459459 5.21372432,3.86756757 5.2001027,3.37524324 C5.18599459,2.89994595 5.32367027,2.37551351 5.58783243,1.87443243 C5.84080541,1.47940541 6.26648108,1.05421622 6.60458919,1.05421622 C6.62161622,1.05421622 6.63912973,1.05567568 6.65323784,1.05810811 C6.86194054,1.08827027 6.85561622,1.48475676 6.83275135,1.854 L6.8274,1.94545946 C6.79675135,2.55210811 6.78361622,3.06291892 6.92129189,3.65448649 C7.1154,4.45718919 7.57221081,5.10859459 8.01248108,5.73859459 C8.10831892,5.87578378 8.20512973,6.01345946 8.30242703,6.15697297 C8.71691351,6.75389189 9.24426486,7.40335135 9.81783243,8.02605405 C9.92583243,8.15691892 10.0450216,8.30140541 10.1895081,8.40113514 C10.228427,8.47216216 10.2804811,8.50913514 10.3305892,8.52713514 C10.6871838,8.80102703 11.0685892,8.96010811 11.5526432,9.03891892 C11.9034,9.10556757 12.2050216,9.16102703 12.3572919,9.41740541 C12.6623189,9.95789189 12.6715622,10.7022162 12.6778865,11.2967027 L12.6793459,11.4382703 C12.6895622,12.0702162 12.6837243,12.798 12.5105351,13.4352973 M15.0777243,8.62248649 C14.4433459,8.01194595 13.5472378,7.94189189 12.9279405,7.94189189 C12.6097784,7.94189189 12.3018324,7.96378378 12.0114,7.98518919 C11.9890216,7.98518919 11.9452378,7.97254054 11.9072919,7.95940541 C11.8464811,7.94091892 11.7735081,7.91854054 11.6908054,7.91416216 C11.3959946,7.85043243 11.166373,7.78864865 10.9513459,7.61886486 C10.5125351,7.22821622 10.1277243,6.74124324 9.75507568,6.27081081 L9.48750811,5.93610811 C9.00004865,5.34697297 8.40264324,4.56567568 8.10442703,3.72551351 C7.94729189,3.30567568 7.88307568,2.86102703 7.90545405,2.32345946 C7.90837297,2.22081081 7.91518378,2.12205405 7.92004865,2.02572973 C7.94242703,1.63508108 7.96383243,1.26632432 7.83637297,0.886864865 C7.65637297,0.323027027 7.2126973,0 6.6186973,0 C6.21880541,0 5.79896757,0.151783784 5.47983243,0.405243243 C4.67956216,0.961783784 4.16534595,2.01648649 4.1021027,3.22978378 C4.06950811,3.90989189 4.27675135,4.49464865 4.47718378,5.05945946 C4.65183243,5.55227027 4.81723784,6.01637838 4.81529189,6.51891892 C4.81334595,7.28075676 4.15512973,7.49286486 3.22399459,7.70886486 C3.12231892,7.7327027 3.02161622,7.75605405 2.94280541,7.77648649 C2.83626486,7.79594595 2.72777838,7.81394595 2.61783243,7.83243243 C1.91923784,7.94821622 1.12821081,8.08102703 0.55512973,8.62686486 C0.122643243,9.05643243 -0.0831405405,9.76524324 0.0311837838,10.4331892 C0.1134,10.9148108 0.350805405,11.3112973 0.693778378,11.5467568 C0.477778378,12.366 0.87912973,13.3204865 1.65750811,13.8298378 C1.58307568,14.2005405 1.65264324,14.6194054 1.85891351,15.011027 C2.09048108,15.4488649 2.45680541,15.7913514 2.86642703,15.9543243 C2.8674,16.704973 3.37967027,17.3588108 4.18626486,17.5864865 C4.41053514,17.6322162 4.65377838,17.6541081 4.9301027,17.6541081 C5.33875135,17.6541081 5.7474,17.6064324 6.14242703,17.5621622 C6.27475135,17.5470811 6.40561622,17.5324865 6.55788649,17.5154595 C6.79091351,17.4677838 7.03415676,17.4376216 7.27885946,17.406 C7.78334595,17.3412973 8.3034,17.2746486 8.77480541,17.0712973 C9.1566973,16.901027 9.49431892,16.6553514 9.81880541,16.4184324 C9.92485946,16.3415676 10.0289676,16.2656757 10.1359946,16.1902703 C10.2410757,16.1153514 10.3476162,16.0165946 10.4556162,15.9139459 C10.6434,15.7373514 10.8365351,15.5549189 11.0238324,15.5189189 C11.1906973,15.4868108 11.3492919,15.4692973 11.5030216,15.4532432 C11.6752378,15.4342703 11.8411297,15.4162703 12.0045892,15.3822162 L12.0853459,15.3822162 C12.2575622,15.3822162 12.4468054,15.3924324 12.6433459,15.4050811 C12.8666432,15.4182162 13.0991838,15.4328108 13.3292919,15.4328108 C13.8960486,15.4328108 14.6063189,15.3608108 15.0641027,14.796973 C15.7388595,13.9962162 15.8356703,12.7761081 15.8405351,11.5778919 L15.8405351,11.5258378 C15.8517243,10.6467568 15.8590216,9.31718919 15.0777243,8.62248649" id="Fill-1"></path>
                </g>
            </g>
        </g>
    </g>
</svg>